<svg xmlns="http://www.w3.org/2000/svg" fill="none" viewBox="0 0 22 22" height="22" width="22">
<path stroke-linejoin="round" stroke-linecap="round" stroke-width="2" stroke="#1C1C1C" d="M10.0833 19.9192C10.362 20.0801 10.6782 20.1648 11 20.1648C11.3218 20.1648 11.638 20.0801 11.9167 19.9192L18.3333 16.2525C18.6118 16.0917 18.843 15.8606 19.0039 15.5823C19.1648 15.3039 19.2497 14.9882 19.25 14.6667V7.33333C19.2497 7.01183 19.1648 6.69607 19.0039 6.41772C18.843 6.13938 18.6118 5.90824 18.3333 5.74749L11.9167 2.08083C11.638 1.91992 11.3218 1.83521 11 1.83521C10.6782 1.83521 10.362 1.91992 10.0833 2.08083L3.66667 5.74749C3.38824 5.90824 3.15698 6.13938 2.99609 6.41772C2.8352 6.69607 2.75033 7.01183 2.75 7.33333V14.6667C2.75033 14.9882 2.8352 15.3039 2.99609 15.5823C3.15698 15.8606 3.38824 16.0917 3.66667 16.2525L10.0833 19.9192Z"></path>
<path stroke-linejoin="round" stroke-linecap="round" stroke-width="2" stroke="#1C1C1C" d="M11 20.1667V11"></path>
<path stroke-linejoin="round" stroke-linecap="round" stroke-width="2" stroke="#1C1C1C" d="M3.01855 6.4165L11.0027 10.9998L18.9869 6.4165"></path>
<path stroke-linejoin="round" stroke-linecap="round" stroke-width="2" stroke="#1C1C1C" d="M6.875 3.91406L15.125 8.6349"></path>
</svg>
