<svg xmlns="http://www.w3.org/2000/svg" fill="none" viewBox="0 0 24 24" height="24" width="24">
<path fill="#1C1C1C" d="M20.5978 11.0046C20.5579 10.8262 20.4752 10.6603 20.3567 10.5211C20.2383 10.382 20.0878 10.2737 19.9181 10.2058L15.12 8.28676L16.1128 1.66707C16.1492 1.42936 16.1086 1.18624 15.9967 0.973345C15.8849 0.760454 15.7077 0.589007 15.4913 0.484152C15.2749 0.379297 15.0306 0.346552 14.7942 0.39072C14.5578 0.434889 14.3418 0.553645 14.1778 0.729571L3.67781 11.9796C3.55299 12.1132 3.46265 12.2753 3.4146 12.4518C3.36654 12.6282 3.36223 12.8137 3.40202 12.9922C3.44182 13.1707 3.52453 13.3368 3.643 13.4761C3.76146 13.6154 3.9121 13.7238 4.08187 13.7918L8.87999 15.7108L7.88718 22.3333C7.85074 22.571 7.89142 22.8142 8.00327 23.027C8.11512 23.2399 8.29225 23.4114 8.50867 23.5162C8.72509 23.6211 8.96942 23.6538 9.20581 23.6097C9.4422 23.5655 9.65822 23.4467 9.82218 23.2708L20.3222 12.0208C20.4475 11.8868 20.5382 11.7241 20.5862 11.5469C20.6343 11.3698 20.6382 11.1836 20.5978 11.0046ZM10.65 19.083L11.2378 15.1671C11.2754 14.9164 11.2272 14.6605 11.1011 14.4406C10.975 14.2208 10.7784 14.05 10.5431 13.9558L6.44437 12.3161L13.35 4.91738L12.7622 8.83332C12.7246 9.08395 12.7728 9.33992 12.8989 9.55976C13.025 9.7796 13.2216 9.95043 13.4569 10.0446L17.5556 11.6843L10.65 19.083Z"></path>
</svg>
