<svg xmlns="http://www.w3.org/2000/svg" fill="none" viewBox="0 0 24 24" height="24" width="24">
<path fill="#1C1C1C" d="M12.0008 1.875C10.5448 1.87629 9.10612 2.19161 7.78301 2.79944C6.45991 3.40728 5.28347 4.29333 4.33394 5.39717C3.38441 6.501 2.68413 7.79665 2.28085 9.19573C1.87758 10.5948 1.78081 12.0644 1.99714 13.5043C2.21347 14.9442 2.73781 16.3205 3.5344 17.5393C4.33099 18.7581 5.38108 19.7908 6.61306 20.5669C7.84503 21.3429 9.2299 21.8442 10.6732 22.0364C12.1165 22.2286 13.5843 22.1072 14.9764 21.6806C15.1534 21.6268 15.3144 21.5302 15.4452 21.3994L21.4049 15.4397C21.5356 15.3088 21.6321 15.1479 21.6861 14.9709C22.1493 13.4564 22.251 11.8543 21.9831 10.2933C21.7152 8.73236 21.085 7.25593 20.1433 5.98254C19.2015 4.70914 17.9743 3.67424 16.5603 2.96091C15.1462 2.24757 13.5846 1.87565 12.0008 1.875ZM19.6058 14.0541L14.0558 19.6041C12.3837 20.0539 10.6099 19.9393 9.00959 19.2778C7.40933 18.6164 6.07215 17.4453 5.2056 15.9461C4.33906 14.447 3.99161 12.7037 4.21718 10.9869C4.44276 9.27014 5.22874 7.6758 6.45314 6.4514C7.67754 5.22701 9.27187 4.44102 10.9887 4.21545C12.7055 3.98987 14.4487 4.33732 15.9479 5.20387C17.447 6.07042 18.6182 7.40759 19.2796 9.00786C19.941 10.6081 20.0557 12.382 19.6058 14.0541ZM7.1258 10.125C7.1258 9.82833 7.21377 9.53832 7.37859 9.29164C7.54342 9.04497 7.77768 8.85271 8.05177 8.73918C8.32586 8.62565 8.62746 8.59594 8.91843 8.65382C9.2094 8.7117 9.47668 8.85456 9.68646 9.06434C9.89624 9.27412 10.0391 9.54139 10.097 9.83236C10.1549 10.1233 10.1251 10.4249 10.0116 10.699C9.89808 10.9731 9.70583 11.2074 9.45915 11.3722C9.21248 11.537 8.92247 11.625 8.6258 11.625C8.22797 11.625 7.84644 11.467 7.56514 11.1857C7.28383 10.9044 7.1258 10.5228 7.1258 10.125ZM16.8758 10.125C16.8758 10.4217 16.7878 10.7117 16.623 10.9584C16.4582 11.205 16.2239 11.3973 15.9498 11.5108C15.6757 11.6244 15.3741 11.6541 15.0832 11.5962C14.7922 11.5383 14.5249 11.3954 14.3151 11.1857C14.1054 10.9759 13.9625 10.7086 13.9046 10.4176C13.8467 10.1267 13.8764 9.82506 13.99 9.55097C14.1035 9.27689 14.2958 9.04262 14.5424 8.8778C14.7891 8.71297 15.0791 8.625 15.3758 8.625C15.7736 8.625 16.1552 8.78303 16.4365 9.06434C16.7178 9.34564 16.8758 9.72717 16.8758 10.125ZM16.7249 14.8125C15.6936 16.5994 13.9695 17.625 12.0008 17.625C10.032 17.625 8.3108 16.6003 7.27673 14.8125C7.13398 14.5545 7.09819 14.2509 7.17706 13.9668C7.25593 13.6827 7.44316 13.441 7.69846 13.2935C7.95377 13.1461 8.25674 13.1048 8.5422 13.1785C8.82766 13.2521 9.0728 13.4349 9.22486 13.6875C9.58955 14.3184 10.4352 15.375 12.0008 15.375C13.5664 15.375 14.412 14.3175 14.7767 13.6875C14.8491 13.5567 14.9468 13.4417 15.0641 13.3491C15.1815 13.2565 15.3161 13.1882 15.4601 13.1482C15.6041 13.1083 15.7546 13.0974 15.9029 13.1162C16.0512 13.1351 16.1942 13.1833 16.3237 13.258C16.4531 13.3328 16.5663 13.4325 16.6568 13.5515C16.7472 13.6705 16.813 13.8064 16.8504 13.9511C16.8877 14.0958 16.8959 14.2465 16.8743 14.3944C16.8528 14.5423 16.802 14.6845 16.7249 14.8125Z"></path>
</svg>
