<svg xmlns="http://www.w3.org/2000/svg" xmlns:xlink="http://www.w3.org/1999/xlink" width="1024" height="255" viewBox="0 0 1024 255"><path fill="black" transform="matrix(0.269758 0 0 0.270105 0 3.05176e-05)" d="M3148.68 330.49L3232.56 330.49L3181.11 448.164L3235.33 448.164L3224.14 473.51L3169.07 473.51C3151.83 516.275 3130.27 559.112 3112.06 603.572C3093.32 649.325 3057.01 713.454 3058.01 764.612C3058.39 770.427 3062.25 780.884 3067.68 783.908C3116.16 810.923 3174.31 727.97 3194.87 700.099C3199.59 704.768 3204.87 709.566 3209.74 714.151C3185.39 748.961 3156.79 785.222 3119.82 807.472C3082.85 829.723 3018.15 838.791 2993.23 794.008C2977.62 765.955 2984.1 730.902 2992.47 701.461C2964.09 738.375 2895.28 804.145 2842.15 776.493C2793.5 751.176 2844.62 657.378 2861.03 623.002L2898.03 545.873C2903.25 534.839 2918.37 505.009 2914.19 493.792C2907.17 474.975 2875.68 494.361 2866.41 503.727C2820.56 550.017 2795.28 616.465 2769.41 675.193L2724.09 777.836L2639.68 777.836C2647.23 759.106 2656.93 738.369 2665.23 719.849C2636.84 753.088 2601.19 791.444 2552.95 784.784C2515.23 779.575 2518.87 735.079 2524 707.728C2498.31 741.985 2435.15 803.454 2385.78 781.122C2332.14 756.857 2370.9 681.041 2388.19 643.536L2431.07 552.119L2428.72 553.144C2408.05 562.05 2389.53 563.653 2368.31 555.19C2361.99 616.097 2328.13 690.718 2284.39 734.202C2251.19 767.197 2211.13 786.243 2164.03 786.157C2104.52 786.048 2071.55 751.558 2072.16 692.59C2040.67 733.445 1979.37 808.616 1914.89 777.51C1866.49 754.164 1915.6 669.432 1931.97 634.717L1971.61 550.583C1978.68 535.546 1991.96 512.23 1988.38 495.097C1986.3 485.136 1969.99 487.66 1963.46 491.045C1905.74 520.977 1874.75 611.708 1849.94 667.972L1801.54 777.836L1715.48 777.836L1790.45 604.742C1803.04 575.678 1816.14 546.089 1828.19 516.776C1829.63 512.286 1834.35 499.346 1832.36 495.362C1820.92 472.461 1782.85 509.635 1775.16 517.961C1735.41 560.957 1714.62 617.492 1691.4 670.161L1644.23 777L1560.15 777C1567.87 761.779 1578.4 735.996 1585.17 720.097C1560.33 750.382 1526.1 786.517 1483.51 782.488C1444.8 778.827 1439.82 744.55 1443.38 713.405C1412.04 752.225 1353.12 806.328 1297.44 772.089C1285.92 765.009 1277 748.111 1275.37 734.729C1267.5 670.145 1306.54 606.417 1342.2 555.778C1321.48 567.854 1295.79 581.272 1270.75 570.603C1241.25 558.034 1272.84 516.187 1269.27 506.729C1254.87 501.971 1225.26 550.588 1219.34 561.18C1203.91 588.782 1191.56 618.976 1178.8 647.94L1122.01 777L1040.08 777C1048.64 757.659 1057.04 738.252 1065.3 718.78C1052.97 734.376 1038.55 748.205 1022.46 759.88C991.119 782.359 930.41 803.37 919.627 745.582C917.972 736.71 919.88 727.121 921.618 718.305C891.83 759.02 843.527 793.534 791.034 779.002C723.731 754.317 763.687 653.801 787.169 610.993C827.233 537.955 883.735 474.145 966.621 449.966C978.363 446.512 990.398 444.141 1002.57 442.882C1012.68 441.882 1103.47 439.627 1108.02 461.501C1108.95 465.964 1092.24 501.879 1088.46 510.486L1034.77 632.511C1023.32 658.511 1011.27 683.876 1002.66 710.844C994.01 737.95 1015.83 739.247 1031.66 725.215C1092.13 671.609 1120.99 590.436 1153.35 518.8C1164.28 494.612 1174.25 471.048 1185.06 447.49L1260.58 447.49L1238.92 499.755C1260.44 476.073 1294.2 443.727 1328.08 441.136C1369 439.49 1351.51 479.537 1340.45 500.54C1335.57 509.814 1319.76 528.151 1329.4 536.904C1346.66 542.534 1388.47 505.426 1402.56 494.553C1410.21 488.596 1418.18 483.046 1426.42 477.927C1445.05 466.232 1465.13 457.036 1486.16 450.574C1498.54 446.782 1511.26 444.186 1524.14 442.82C1548.71 440.342 1599.81 441.335 1621.82 453.417C1624.05 454.641 1628.42 457.559 1628.97 460.249C1631.04 470.331 1534.75 671.121 1525.21 706.931C1523.81 712.175 1522.5 718.706 1524.28 724.02C1525.16 726.637 1526.58 728.851 1529.15 730.065C1532.97 731.872 1537.69 730.707 1541.42 729.236C1555.7 723.611 1568.33 709.833 1577.97 698.301C1618.25 650.094 1641.69 592.533 1666.83 535.726L1705.85 447.49L1782.98 447.49C1775.48 464.214 1768.07 483.523 1761.2 500.598C1789.77 468.524 1831.28 436.898 1876.69 441.539C1909.71 444.915 1913.49 474.372 1909.73 501.087C1935.14 474.212 1963.48 453.444 2000.41 444.188C2029.68 435.412 2073.08 444.277 2072.45 482.41C2071.81 521.038 2044.85 572.099 2028.7 606.432L1996.92 674.002C1990.86 686.991 1979.21 708.883 1981.15 723.449C1982.25 731.763 1993.55 732.096 1999.95 729.228C2033.68 714.13 2056.62 675.652 2075.42 645.2C2078.57 640.101 2083.81 622.656 2086.36 615.812C2092.2 599.975 2098.91 584.475 2106.48 569.387C2133.25 515.926 2168.84 468.994 2227.93 449.257C2279.67 431.979 2347.29 438.714 2363.8 500.275C2365.58 506.938 2366.8 516.184 2368.91 522.392C2374.54 538.928 2402 537.481 2414.89 532.333C2449.74 518.554 2464.51 478.135 2478.91 446.832L2563.28 446.832C2555.14 466.558 2543.91 489.365 2534.86 509.111L2479.46 630.093C2467.86 655.498 2455.4 680.948 2445.92 707.178C2443.75 713.174 2441.16 727.669 2449.45 730.216C2469.14 736.263 2491.34 711.813 2502.84 698.732C2544.43 651.424 2566.63 593.964 2591.36 537.123L2630.6 446.832L2715.88 446.832C2680.21 534.208 2637.69 620.005 2603.22 708.041C2596.98 723.982 2600.57 737.07 2619.59 729.167C2637.68 721.648 2652.12 701.981 2664.05 687.261C2697.87 643.63 2720.24 594.901 2742.14 544.978L2784.53 448.164L2863.58 448.164L2843.11 497.28C2875.68 464.567 2926.96 425.576 2976.86 448.765C2992.11 455.85 3001.09 477.861 2998.89 494.126C2993.25 535.916 2969.01 575.28 2951.74 613.268C2939.62 638.564 2927.16 663.841 2916.25 689.684C2913.44 696.354 2899.72 727.136 2911.22 730.611C2929.09 736.011 2951.24 714.161 2962.02 701.854C3019.04 636.783 3051.51 551.938 3086.48 473.51L3046.27 473.51L3058.12 448.164L3097.14 448.164C3114.72 409.114 3131.9 369.888 3148.68 330.49ZM2170.2 755.745C2192.61 751.321 2207.43 732.2 2219.5 714.227C2248.73 670.681 2311.9 537.742 2301.64 487.971C2300.52 482.529 2298.35 477.176 2293.56 473.991C2288.12 470.378 2281.76 470.645 2275.54 471.14C2222.99 487.661 2164.89 627.989 2150.96 680.089C2144.89 702.81 2128.74 759.355 2170.2 755.745ZM1366.59 730.412C1431.67 748.046 1496.95 577.434 1517.96 530.372C1524.76 515.337 1531.43 500.239 1537.97 485.081C1539.74 481.045 1545.19 473.867 1543.13 470.215C1541.26 470.17 1539.62 470.054 1537.76 470.326C1494.76 475.299 1467.7 501.191 1440.12 533.17C1416.68 560.343 1329.27 706.104 1366.59 730.412ZM847.564 731.083C912.604 743.801 977.978 574.741 999.292 526.965L1017.3 486.61C1018.64 483.61 1024.18 472.974 1023.78 470.493C1020.8 469.666 1019.8 469.994 1016.81 470.376C972.916 475.901 946.249 502.394 918.445 535.14C895.75 561.87 807.234 709.76 847.564 731.083Z"/><path fill="black" transform="matrix(0.269758 0 0 0.270105 0 3.05176e-05)" d="M3588.15 271L3679.21 271C3672.05 289.109 3662.5 309.836 3654.66 327.947L3602.77 448.164L3795.6 448.164L3763.13 522.836L3570.32 522.836L3493.75 699.836L3402.61 699.836C3426.27 641.574 3454.36 581.204 3479.06 522.836L3286.23 522.836L3318.64 448.164L3511.5 448.164L3588.15 271Z"/><path fill="black" transform="matrix(0.269758 0 0 0.270105 0 3.05176e-05)" d="M652.583 504.01C721.362 496.024 778.643 467.597 822.155 412.565C859.655 365.999 876.677 306.22 869.332 246.884C850.848 92.1682 681.045 69.3097 554.547 84.4049C445.901 97.3697 333.694 149.38 265.194 236.509C219.272 294.458 196.771 370.088 205.245 443.667C209.312 478.976 224.16 517.484 252.968 539.64C298.561 574.704 375.377 568.007 410.365 520.768C425.121 501.411 433.111 476.961 434.243 452.748C434.635 444.366 433.196 433.21 436.202 425.333C442.565 408.661 469.56 405.335 482.675 415.37C487.78 419.147 491.439 426.862 491.765 433.138C493.325 463.115 482.155 496.19 463.07 519.469C403.335 592.329 264.961 593.129 193.953 537.724C161.159 512.136 140.744 467.43 137.265 426.667C130.41 353.422 157.071 281.113 203.463 225.011C287.495 123.388 428.287 70.3844 556.885 58.5019C667.834 48.2503 812.324 61.4509 901.871 134.248C940.765 165.867 965.662 209.676 970.061 259.792C974.816 313.975 959.027 361.801 924.462 403.467C861.387 479.496 740.385 521.272 644.264 532.607C602.662 674.072 528.801 808.004 395.073 882.026C313.958 926.925 201.599 943.794 111.243 918.768C73.3071 908.26 35.0096 884.409 16.2978 848.997C8.13471 833.549 3.99022 819.517 1.75156 802.105C1.3194 798.744 0.61092 788.948 0 786.444L0 779.558C2.44361 763.088 2.66212 744.731 17.2887 733.686C31.621 722.862 56.5477 723.765 67.6122 739.342C79.7306 756.404 66.8844 783.129 69.3516 802.732C71.8739 859.85 109.051 898.301 164.795 906.766C224.365 915.813 288.497 900.125 336.728 864.218C402.578 815.194 442.097 743.719 477.967 672.474C550.054 529.293 620.621 294.139 766.678 208.577L773.969 217.09C725.588 278.004 696.364 359.62 673.541 433.016C666.322 456.234 660.12 481.2 652.583 504.01Z"/></svg>