<svg xmlns="http://www.w3.org/2000/svg" fill="none" viewBox="0 0 24 24" height="24" width="24">
<path fill="#1C1C1C" d="M19.5 2.62659H17.625V2.25159C17.625 1.95322 17.5065 1.66707 17.2955 1.45609C17.0845 1.24511 16.7984 1.12659 16.5 1.12659C16.2016 1.12659 15.9155 1.24511 15.7045 1.45609C15.4935 1.66707 15.375 1.95322 15.375 2.25159V2.62659H8.625V2.25159C8.625 1.95322 8.50647 1.66707 8.2955 1.45609C8.08452 1.24511 7.79837 1.12659 7.5 1.12659C7.20163 1.12659 6.91548 1.24511 6.7045 1.45609C6.49353 1.66707 6.375 1.95322 6.375 2.25159V2.62659H4.5C4.00272 2.62659 3.52581 2.82413 3.17417 3.17576C2.82254 3.52739 2.625 4.00431 2.625 4.50159V19.5016C2.625 19.9989 2.82254 20.4758 3.17417 20.8274C3.52581 21.179 4.00272 21.3766 4.5 21.3766H19.5C19.9973 21.3766 20.4742 21.179 20.8258 20.8274C21.1775 20.4758 21.375 19.9989 21.375 19.5016V4.50159C21.375 4.00431 21.1775 3.52739 20.8258 3.17576C20.4742 2.82413 19.9973 2.62659 19.5 2.62659ZM6.375 4.87659C6.375 5.17496 6.49353 5.4611 6.7045 5.67208C6.91548 5.88306 7.20163 6.00159 7.5 6.00159C7.79837 6.00159 8.08452 5.88306 8.2955 5.67208C8.50647 5.4611 8.625 5.17496 8.625 4.87659H15.375C15.375 5.17496 15.4935 5.4611 15.7045 5.67208C15.9155 5.88306 16.2016 6.00159 16.5 6.00159C16.7984 6.00159 17.0845 5.88306 17.2955 5.67208C17.5065 5.4611 17.625 5.17496 17.625 4.87659H19.125V7.12659H4.875V4.87659H6.375ZM4.875 19.1266V9.37659H19.125V19.1266H4.875ZM16.1709 11.2056C16.2758 11.3102 16.359 11.4344 16.4158 11.5711C16.4726 11.7078 16.5018 11.8545 16.5018 12.0025C16.5018 12.1506 16.4726 12.2972 16.4158 12.4339C16.359 12.5707 16.2758 12.6949 16.1709 12.7994L11.6709 17.2994C11.5664 17.4043 11.4422 17.4875 11.3055 17.5443C11.1687 17.6011 11.0221 17.6303 10.8741 17.6303C10.726 17.6303 10.5794 17.6011 10.4426 17.5443C10.3059 17.4875 10.1817 17.4043 10.0772 17.2994L7.82719 15.0494C7.61584 14.8381 7.49711 14.5514 7.49711 14.2525C7.49711 13.9536 7.61584 13.667 7.82719 13.4556C8.03853 13.2443 8.32518 13.1256 8.62406 13.1256C8.92295 13.1256 9.20959 13.2443 9.42094 13.4556L10.875 14.9078L14.5791 11.2028C14.6837 11.0984 14.808 11.0157 14.9446 10.9593C15.0813 10.9029 15.2277 10.874 15.3756 10.8743C15.5234 10.8746 15.6698 10.904 15.8062 10.9608C15.9427 11.0177 16.0666 11.1009 16.1709 11.2056Z"></path>
</svg>
