<?xml version="1.0" encoding="UTF-8"?>
<svg width="511px" height="140px" viewBox="0 0 511 140" version="1.1" xmlns="http://www.w3.org/2000/svg" xmlns:xlink="http://www.w3.org/1999/xlink">
    <!-- Generator: Sketch 42 (36781) - http://www.bohemiancoding.com/sketch -->
    <title>Page 1</title>
    <desc>Created with Sketch.</desc>
    <defs>
        <polygon id="path-1" points="1.17616471 62.5882353 58.2731059 62.5882353 58.2731059 0.290211765 1.17616471 0.290211765"></polygon>
        <polygon id="path-3" points="0 139.406894 510.995059 139.406894 510.995059 -0.000164705883 0 -0.000164705883"></polygon>
    </defs>
    <g id="Page-1" stroke="none" stroke-width="1" fill="none" fill-rule="evenodd">
        <g id="holding-page" transform="translate(-464.000000, -290.000000)">
            <g id="Page-1" transform="translate(464.000000, 290.000000)">
                <path d="M258.662024,13.9871529 C256.3232,13.9871529 254.425788,12.0913882 254.425788,9.75091765 C254.425788,7.41209412 256.3232,5.51468235 258.662024,5.51468235 C261.000847,5.51468235 262.898259,7.41209412 262.898259,9.75091765 C262.898259,12.0913882 261.000847,13.9871529 258.662024,13.9871529 Z" id="Fill-1" fill="#FFFFFF"></path>
                <path d="M246.803859,17.1644941 C248.829741,15.9950824 249.5248,13.4042588 248.353741,11.3783765 C247.184329,9.35249412 244.593506,8.65743529 242.567624,9.82684706 C240.541741,10.9979059 239.848329,13.5887294 241.017741,15.6146118 C242.187153,17.6404941 244.777976,18.3339059 246.803859,17.1644941" id="Fill-3" fill="#FFFFFF"></path>
                <path d="M232.336424,27.3960235 C234.362306,28.5654353 236.953129,27.8720235 238.122541,25.8461412 C239.291953,23.8202588 238.598541,21.2294353 236.572659,20.0583765 C234.546776,18.8889647 231.955953,19.5840235 230.786541,21.6099059 C229.615482,23.6357882 230.310541,26.2266118 232.336424,27.3960235" id="Fill-5" fill="#FFFFFF"></path>
                <path d="M234.945529,37.7038118 C234.945529,35.3649882 233.048118,33.4675765 230.709294,33.4675765 C228.370471,33.4675765 226.473059,35.3649882 226.473059,37.7038118 C226.473059,40.0426353 228.370471,41.9400471 230.709294,41.9400471 C233.048118,41.9400471 234.945529,40.0426353 234.945529,37.7038118" id="Fill-7" fill="#FFFFFF"></path>
                <path d="M232.336424,48.0116 C230.310541,49.1810118 229.615482,51.7718353 230.786541,53.7977176 C231.955953,55.8236 234.546776,56.5186588 236.572659,55.3492471 C238.598541,54.1781882 239.291953,51.5873647 238.122541,49.5614824 C236.953129,47.5356 234.362306,46.8421882 232.336424,48.0116" id="Fill-9" fill="#FFFFFF"></path>
                <path d="M246.803859,58.2429647 C244.777976,57.0735529 242.187153,57.7669647 241.017741,59.7928471 C239.848329,61.8187294 240.541741,64.4095529 242.567624,65.5806118 C244.593506,66.7500235 247.184329,66.0549647 248.353741,64.0290824 C249.5248,62.0032 248.829741,59.4123765 246.803859,58.2429647" id="Fill-11" fill="#FFFFFF"></path>
                <path d="M258.662024,61.4203059 C256.3232,61.4203059 254.425788,63.3177176 254.425788,65.6565412 C254.425788,67.9953647 256.3232,69.8927765 258.662024,69.8927765 C261.000847,69.8927765 262.898259,67.9953647 262.898259,65.6565412 C262.898259,63.3177176 261.000847,61.4203059 258.662024,61.4203059" id="Fill-13" fill="#FFFFFF"></path>
                <path d="M270.520353,58.2429647 C268.494471,59.4123765 267.799412,62.0032 268.970471,64.0290824 C270.139882,66.0549647 272.730706,66.7500235 274.756588,65.5806118 C276.782471,64.4095529 277.477529,61.8187294 276.306471,59.7928471 C275.137059,57.7669647 272.546235,57.0735529 270.520353,58.2429647" id="Fill-15" fill="#FFFFFF"></path>
                <path d="M284.987788,48.0116 C282.961906,46.8421882 280.371082,47.5356 279.201671,49.5614824 C278.032259,51.5873647 278.725671,54.1781882 280.751553,55.3492471 C282.777435,56.5186588 285.368259,55.8236 286.537671,53.7977176 C287.707082,51.7718353 287.013671,49.1810118 284.987788,48.0116" id="Fill-17" fill="#FFFFFF"></path>
                <path d="M286.614753,33.4677412 C284.275929,33.4677412 282.378518,35.3651529 282.378518,37.7039765 C282.378518,40.0428 284.275929,41.9402118 286.614753,41.9402118 C288.953576,41.9402118 290.850988,40.0428 290.850988,37.7039765 C290.850988,35.3651529 288.953576,33.4677412 286.614753,33.4677412" id="Fill-19" fill="#FFFFFF"></path>
                <path d="M264.277671,16.7458118 C262.4972,16.2681647 260.665671,17.3255765 260.188024,19.1060471 C259.712024,20.8881647 260.767788,22.7180471 262.549906,23.1956941 C264.330376,23.6733412 266.161906,22.6159294 266.637906,20.8354588 C267.115553,19.0533412 266.058141,17.2234588 264.277671,16.7458118" id="Fill-21" fill="#FFFFFF"></path>
                <path d="M254.774635,23.1953647 C256.555106,22.7177176 257.612518,20.8878353 257.134871,19.1073647 C256.657224,17.3252471 254.827341,16.2694824 253.046871,16.7454824 C251.264753,17.2231294 250.208988,19.0530118 250.684988,20.8351294 C251.162635,22.6156 252.994165,23.6730118 254.774635,23.1953647" id="Fill-23" fill="#FFFFFF"></path>
                <path d="M243.319835,22.3616235 C242.015365,23.6660941 242.015365,25.7792706 243.319835,27.0837412 C244.624306,28.3865647 246.737482,28.3865647 248.041953,27.0837412 C249.344776,25.7792706 249.344776,23.6660941 248.041953,22.3616235 C246.737482,21.0571529 244.624306,21.0571529 243.319835,22.3616235" id="Fill-25" fill="#FFFFFF"></path>
                <path d="M241.793012,29.7274353 C240.012541,29.2497882 238.181012,30.3072 237.705012,32.0876706 C237.227365,33.8697882 238.283129,35.6996706 240.065247,36.1773176 C241.845718,36.6533176 243.677247,35.5975529 244.153247,33.8154353 C244.630894,32.0349647 243.573482,30.2050824 241.793012,29.7274353" id="Fill-27" fill="#FFFFFF"></path>
                <path d="M240.064918,39.2306353 C238.284447,39.7082824 237.227035,41.5381647 237.704682,43.3186353 C238.180682,45.1007529 240.012212,46.1581647 241.792682,45.6805176 C243.5748,45.2028706 244.630565,43.3729882 244.154565,41.5908706 C243.676918,39.8104 241.845388,38.7529882 240.064918,39.2306353" id="Fill-29" fill="#FFFFFF"></path>
                <path d="M243.319835,48.3245412 C242.015365,49.6290118 242.015365,51.7421882 243.319835,53.0466588 C244.624306,54.3494824 246.737482,54.3494824 248.041953,53.0466588 C249.344776,51.7421882 249.344776,49.6290118 248.041953,48.3245412 C246.737482,47.0200706 244.624306,47.0200706 243.319835,48.3245412" id="Fill-31" fill="#FFFFFF"></path>
                <path d="M257.135365,56.3010824 C257.613012,54.5206118 256.5556,52.6890824 254.775129,52.2114353 C252.993012,51.7354353 251.163129,52.7912 250.685482,54.5733176 C250.207835,56.3537882 251.265247,58.1836706 253.045718,58.6613176 C254.827835,59.1389647 256.657718,58.0815529 257.135365,56.3010824" id="Fill-33" fill="#FFFFFF"></path>
                <path d="M262.549576,52.2120941 C260.769106,52.6897412 259.711694,54.5196235 260.189341,56.3017412 C260.665341,58.0822118 262.496871,59.1396235 264.277341,58.6619765 C266.059459,58.1843294 267.115224,56.3544471 266.637576,54.5723294 C266.161576,52.7918588 264.330047,51.7344471 262.549576,52.2120941" id="Fill-35" fill="#FFFFFF"></path>
                <path d="M274.004376,53.046 C275.308847,51.7415294 275.308847,49.6283529 274.004376,48.3238824 C272.699906,47.0210588 270.586729,47.0210588 269.282259,48.3238824 C267.979435,49.6283529 267.979435,51.7415294 269.282259,53.046 C270.586729,54.3504706 272.699906,54.3504706 274.004376,53.046" id="Fill-37" fill="#FFFFFF"></path>
                <path d="M277.259294,39.2306353 C275.478824,38.7529882 273.647294,39.8104 273.169647,41.5908706 C272.693647,43.3729882 273.749412,45.2028706 275.531529,45.6805176 C277.312,46.1581647 279.143529,45.1007529 279.619529,43.3186353 C280.097176,41.5381647 279.039765,39.7082824 277.259294,39.2306353" id="Fill-39" fill="#FFFFFF"></path>
                <path d="M279.619859,32.0881647 C279.142212,30.3076941 277.312329,29.2502824 275.531859,29.7279294 C273.749741,30.2039294 272.693976,32.0354588 273.169976,33.8159294 C273.647624,35.5980471 275.477506,36.6538118 277.259624,36.1778118 C279.040094,35.7001647 280.097506,33.8686353 279.619859,32.0881647" id="Fill-41" fill="#FFFFFF"></path>
                <path d="M271.381765,25.9255294 C271.595882,25.9255294 271.811647,25.8431765 271.974706,25.6801176 L275.535647,22.1801176 C275.560353,22.1537647 275.580118,22.1257647 275.603176,22.0977647 C276.347647,22.5391765 277.263412,22.6923529 278.166,22.4518824 C279.948118,21.9742353 281.003882,20.1427059 280.527882,18.3622353 C280.050235,16.5817647 278.220353,15.5243529 276.438235,16.002 C274.657765,16.4796471 273.600353,18.3095294 274.078,20.09 C274.158706,20.3914118 274.280588,20.6697647 274.432118,20.9267059 C274.404118,20.9481176 274.374471,20.9678824 274.349765,20.9942353 L270.788824,24.4942353 C270.461059,24.822 270.461059,25.3523529 270.788824,25.6801176 C270.951882,25.8431765 271.167647,25.9255294 271.381765,25.9255294" id="Fill-43" fill="#FFFFFF"></path>
                <path d="M273.147412,12.3129176 C273.279176,12.3886824 273.424118,12.4249176 273.565765,12.4249176 C273.855647,12.4249176 274.137294,12.2750353 274.292118,12.0065647 L276.472824,8.32374118 C276.487647,8.29903529 276.497529,8.27268235 276.509059,8.24632941 C277.765765,8.66962353 279.202,8.50162353 280.356588,7.66162353 C282.249059,6.28632941 282.667412,3.63621176 281.290471,1.74538824 C279.915176,-0.147082353 277.266706,-0.565435294 275.374235,0.809858824 C273.481765,2.1868 273.063412,4.83527059 274.440353,6.72774118 C274.628118,6.98632941 274.840588,7.21362353 275.071176,7.41621176 C275.054706,7.43927059 275.034941,7.46068235 275.021765,7.48538824 L272.841059,11.1682118 C272.608824,11.5684471 272.745529,12.0806824 273.147412,12.3129176" id="Fill-45" fill="#FFFFFF"></path>
                <path d="M272.8404,11.1675529 C272.608165,11.5694353 272.746518,12.0816706 273.146753,12.3122588 C273.280165,12.3896706 273.423459,12.4259059 273.565106,12.4259059 C273.854988,12.4259059 274.138282,12.2743765 274.293106,12.0059059" id="Fill-47" fill="#FFFFFF"></path>
                <path d="M295.563718,16.8772471 C294.496424,14.7953647 291.943482,13.9734824 289.8616,15.0424235 C287.967482,16.0141882 287.122541,18.2130118 287.787953,20.1697176 C287.750071,20.1861882 287.712188,20.2010118 287.674306,20.2207765 L284.049129,22.2532471 C283.648894,22.4838353 283.510541,22.9960706 283.742776,23.3979529 C283.8976,23.6664235 284.179247,23.8179529 284.469129,23.8179529 C284.610776,23.8179529 284.755718,23.7817176 284.887482,23.7043059 L288.512659,21.6734824 C288.550541,21.6520706 288.581835,21.6273647 288.613129,21.6010118 C289.863247,23.0290118 291.963247,23.4852471 293.728894,22.5793647 C295.810776,21.5120706 296.631012,18.9591294 295.563718,16.8772471" id="Fill-49" fill="#FFFFFF"></path>
                <path d="M29.9298588,82.6914118 C15.5164471,82.6914118 5.13832941,93.1848235 5.13832941,108.176353 C5.13832941,123.395176 15.5164471,133.888588 29.9298588,133.888588 C38.0004471,133.888588 44.9197412,130.890941 49.5315059,125.470471 L52.4138588,128.583412 C47.1103294,134.812588 39.1550353,138.385059 29.8145647,138.385059 C12.8646824,138.385059 0.411270588,125.933294 0.411270588,108.29 C0.411270588,90.6483529 12.8646824,78.0796471 29.8145647,78.0796471 C38.4632706,78.0796471 45.9573882,81.1925882 51.2609176,86.4977647 L48.4938588,89.9565882 C43.6515059,85.4601176 37.4239765,82.6914118 29.9298588,82.6914118" id="Fill-51" fill="#FFFFFF"></path>
                <path d="M29.8152235,78.4917412 C13.0168706,78.4917412 0.823694118,91.0225647 0.823694118,108.290329 C0.823694118,125.490565 13.0168706,137.973624 29.8152235,137.973624 C38.7472235,137.973624 46.5608706,134.646565 51.8627529,128.593624 L49.5420471,126.085153 C44.8446353,131.387035 37.9006353,134.300682 29.9305176,134.300682 C15.0921647,134.300682 4.72722353,123.556918 4.72722353,108.175035 C4.72722353,92.9298588 15.0921647,82.2799765 29.9305176,82.2799765 C36.9140471,82.2799765 43.3062824,84.7242118 48.4484,89.3557412 L50.7081647,86.5293882 C45.3766353,81.3428 37.9731059,78.4917412 29.8152235,78.4917412 M29.8152235,138.797153 C12.5392235,138.797153 0.00016470589,125.966565 0.00016470589,108.290329 C0.00016470589,90.5465647 12.5392235,77.6682118 29.8152235,77.6682118 C38.3272235,77.6682118 46.0469882,80.7004471 51.5531059,86.2065647 L51.8133412,86.4668 L48.5389882,90.5597412 L48.2145176,90.2599765 C43.1020471,85.5115059 36.9502824,83.1035059 29.9305176,83.1035059 C15.5764,83.1035059 5.55075294,93.4140941 5.55075294,108.175035 C5.55075294,123.072682 15.5764,133.477153 29.9305176,133.477153 C37.8281647,133.477153 44.6782824,130.5388 49.2192235,125.202329 L49.5189882,124.849859 L52.9662824,128.572212 L52.7291059,128.850565 C47.2658118,135.265859 39.1276941,138.797153 29.8152235,138.797153" id="Fill-53" fill="#FFFFFF"></path>
                <path d="M93.4229882,78.0799765 L93.4229882,83.0392706 C80.1625176,83.0392706 72.0919294,91.8016235 71.0542824,105.753859 L71.0542824,138.270094 L66.2119294,138.270094 L66.2119294,78.1952706 L71.0542824,78.1952706 L71.0542824,93.3004471 C74.8589882,83.6140941 82.7006353,78.3105647 93.4229882,78.0799765" id="Fill-55" fill="#FFFFFF"></path>
                <path d="M66.6230353,137.858329 L70.6418588,137.858329 L70.6418588,105.753859 C71.7075059,91.4129176 80.0580941,82.8070353 93.0105647,82.6308 L93.0105647,78.5032706 C82.5978588,78.8573882 75.1416235,84.0192706 71.4373882,93.4519765 L70.6418588,95.4762118 L70.6418588,78.6070353 L66.6230353,78.6070353 L66.6230353,137.858329 Z M71.4653882,138.681859 L65.7995059,138.681859 L65.7995059,77.7835059 L71.4653882,77.7835059 L71.4653882,91.3140941 C75.5566824,82.7115059 83.2780941,77.8856235 93.4140941,77.6682118 L93.8340941,77.6583294 L93.8340941,83.4510353 L93.4223294,83.4510353 C80.7136235,83.4510353 72.5046824,91.7999765 71.4653882,105.783506 L71.4653882,138.681859 Z" id="Fill-57" fill="#FFFFFF"></path>
                <path d="M149.951859,105.293506 C149.029506,91.6855059 140.150212,82.4619765 126.428565,82.4619765 C112.937506,82.4619765 103.137506,91.6855059 101.984565,105.293506 L149.951859,105.293506 Z M154.333035,109.559388 L101.869271,109.559388 C102.561035,124.201741 112.708565,134.005035 126.659153,134.005035 C134.846682,134.005035 142.110212,131.005741 146.954212,125.702212 L149.721271,128.815153 C144.187153,134.812094 135.999624,138.386212 126.428565,138.386212 C109.478682,138.386212 97.1422118,125.9328 97.1422118,108.289506 C97.1422118,90.6478588 109.478682,78.0808 126.428565,78.0808 C144.071859,78.0808 154.678918,90.9937412 154.333035,109.559388 L154.333035,109.559388 Z" id="Fill-59" fill="#FFFFFF"></path>
                <path d="M102.435365,104.881741 L149.508306,104.881741 C148.4196,91.4960941 139.401953,82.8737412 126.428071,82.8737412 C113.338894,82.8737412 103.748071,91.6970353 102.435365,104.881741 L102.435365,104.881741 Z M150.392776,105.705271 L101.536071,105.705271 L101.573953,105.258918 C102.749953,91.3775059 112.739365,82.0502118 126.428071,82.0502118 C140.011365,82.0502118 149.406188,91.1633882 150.363129,105.265506 L150.392776,105.705271 Z M126.428071,78.4925647 C109.697247,78.4925647 97.5534824,91.0233882 97.5534824,108.289506 C97.5534824,125.491388 109.697247,137.974447 126.428071,137.974447 C135.498424,137.974447 143.555835,134.721506 149.164071,128.808565 L146.945482,126.313271 C141.987835,131.542682 134.803365,134.4168 126.660306,134.4168 C112.288071,134.4168 102.160306,124.433976 101.457012,109.579153 L101.437247,109.147624 L153.927365,109.147624 C154.0196,99.6671529 151.138894,91.4648 145.794188,86.0212706 C140.960071,81.0965647 134.263129,78.4925647 126.428071,78.4925647 L126.428071,78.4925647 Z M126.428071,138.797976 C109.2196,138.797976 96.7299529,125.967388 96.7299529,108.289506 C96.7299529,90.5473882 109.2196,77.6690353 126.428071,77.6690353 C134.488776,77.6690353 141.388306,80.3570353 146.382188,85.4431529 C151.957482,91.1238588 154.928776,99.6935059 154.744306,109.567624 L154.737718,109.971153 L102.301953,109.971153 C103.156776,124.121035 112.897482,133.593271 126.660306,133.593271 C134.740776,133.593271 141.8396,130.691153 146.649012,125.423859 L146.957012,125.087859 L150.275835,128.820094 L150.023835,129.095153 C144.2476,135.352329 135.869012,138.797976 126.428071,138.797976 L126.428071,138.797976 Z" id="Fill-61" fill="#FFFFFF"></path>
                <path d="M205.734941,118.667788 L205.734941,108.867788 L184.749765,108.867788 C172.988118,108.867788 166.531647,112.903082 166.531647,120.627788 C166.531647,128.584729 172.642235,134.0052 182.443882,134.0052 C193.627412,134.0052 202.045529,129.159553 205.734941,118.667788 L205.734941,118.667788 Z M205.850235,138.269435 L205.734941,126.392494 C200.662,134.695318 192.128588,138.386376 181.750471,138.386376 C169.875176,138.386376 161.918235,130.890612 161.918235,120.744729 C161.918235,110.710847 170.451647,104.600259 184.288588,104.600259 L205.619647,104.600259 L205.619647,98.7202588 C205.504353,88.5727294 199.624353,82.4621412 187.632118,82.4621412 C180.136353,82.4621412 173.795176,85.4597882 167.454,90.3021412 L165.146471,86.6127294 C172.296353,81.4244941 179.214,78.0793176 188.323882,78.0793176 C202.506706,78.0793176 210.231412,85.9209647 210.346706,98.3743765 L210.577294,138.269435 L205.850235,138.269435 Z" id="Fill-63" fill="#FFFFFF"></path>
                <path d="M184.7496,109.279224 C176.626306,109.279224 166.943247,111.247459 166.943247,120.629106 C166.943247,128.503694 173.027482,133.593106 182.443718,133.593106 C193.935247,133.593106 201.846071,128.406518 205.323012,118.596635 L205.323012,109.279224 L184.7496,109.279224 Z M182.443718,134.416635 C172.526776,134.416635 166.119718,129.0044 166.119718,120.629106 C166.119718,112.665576 172.561365,108.455694 184.7496,108.455694 L206.146541,108.455694 L206.123482,118.804165 C202.531247,129.017576 194.343718,134.416635 182.443718,134.416635 L182.443718,134.416635 Z M184.288424,105.011694 C170.744659,105.011694 162.331482,111.039929 162.331482,120.7444 C162.331482,130.888635 170.316424,137.974282 181.751953,137.974282 C192.497365,137.974282 200.668424,133.894518 205.383953,126.179694 L206.133365,124.952635 L206.258541,137.858988 L210.163718,137.858988 L209.936424,98.3756941 C209.819482,85.7394588 201.9416,78.4924 188.323718,78.4924 C180.407953,78.4924 173.8296,80.8806353 165.701365,86.7211059 L167.564188,89.7022824 C174.592188,84.4119294 180.798306,82.0500471 187.631953,82.0500471 C199.373835,82.0500471 205.909365,87.9695765 206.031247,98.7149882 L206.031247,105.011694 L184.288424,105.011694 Z M181.751953,138.797812 C169.832188,138.797812 161.507953,131.374518 161.507953,120.7444 C161.507953,110.532635 170.235718,104.188165 184.288424,104.188165 L205.207718,104.188165 L205.207718,98.7199294 C205.090776,88.3549882 199.013129,82.8735765 187.631953,82.8735765 C180.874071,82.8735765 174.728894,85.2651059 167.704188,90.6295765 L167.345129,90.9046353 L164.594541,86.5053412 L164.905835,86.2796941 C170.772659,82.0204 178.1416,77.6688706 188.323718,77.6688706 C202.252894,77.6688706 210.639718,85.4067529 210.759953,98.3707529 L210.992188,138.682518 L205.443247,138.682518 L205.337835,127.765812 C200.3736,134.989812 192.251953,138.797812 181.751953,138.797812 L181.751953,138.797812 Z" id="Fill-65" fill="#FFFFFF"></path>
                <path d="M252.278353,134.118682 C248.472,136.770447 244.207765,138.386212 239.709647,138.386212 C231.176235,138.501506 226.103294,132.965741 226.103294,121.665271 L226.103294,83.8471529 L217.340941,83.8471529 L217.340941,79.6949176 L251.125412,79.6949176 L251.125412,83.8471529 L230.716706,83.8471529 L230.716706,121.0888 C230.716706,129.623859 234.058588,133.7728 240.286118,133.657506 C243.744941,133.657506 247.319059,132.389271 250.433647,130.198682 L252.278353,134.118682 Z" id="Fill-67" fill="#FFFFFF"></path>
                <path d="M217.751882,83.4345647 L226.515882,83.4345647 L226.515882,121.666094 C226.515882,127.6268 227.925765,132.040918 230.704353,134.783271 C232.903176,136.952447 235.920588,138.011506 239.703882,137.973624 C243.800118,137.973624 247.851882,136.629624 251.757059,133.977859 L250.266471,130.812212 C247.127176,132.915506 243.600824,134.068447 240.285294,134.068447 C237.480353,134.121153 235.233765,133.327271 233.586706,131.711506 C231.409294,129.573624 230.304118,125.999506 230.304118,121.087976 L230.304118,83.4345647 L250.712824,83.4345647 L250.712824,80.1058588 L217.751882,80.1058588 L217.751882,83.4345647 Z M239.442,138.7988 C235.569765,138.7988 232.435412,137.645859 230.126235,135.367976 C227.184588,132.465859 225.692353,127.855741 225.692353,121.666094 L225.692353,84.2580941 L216.928353,84.2580941 L216.928353,79.2823294 L251.536353,79.2823294 L251.536353,84.2580941 L231.127647,84.2580941 L231.127647,121.087976 C231.127647,125.768918 232.148824,129.145388 234.163176,131.121859 C235.647176,132.579506 237.717529,133.307506 240.277059,133.244918 C243.576118,133.244918 247.094235,132.044212 250.195647,129.861859 L250.597529,129.580212 L252.798,134.256212 L252.513059,134.457153 C248.380588,137.337859 244.071882,138.797153 239.710471,138.797153 C239.619882,138.7988 239.530941,138.7988 239.442,138.7988 L239.442,138.7988 Z" id="Fill-69" fill="#FFFFFF"></path>
                <polygon id="Fill-71" fill="#FFFFFF" points="267.692682 78.1957647 277.575035 138.270588 272.846329 138.270588 262.963976 78.1957647"></polygon>
                <path d="M273.195506,137.858329 L277.089153,137.858329 L267.343506,78.6070353 L263.449859,78.6070353 L273.195506,137.858329 Z M278.060918,138.681859 L272.497153,138.681859 L272.439506,138.337624 L262.479741,77.7835059 L268.041859,77.7835059 L268.099506,78.1277412 L278.060918,138.681859 Z" id="Fill-73" fill="#FFFFFF"></path>
                <polygon id="Fill-75" fill="#FFFFFF" points="287.059788 78.1957647 308.738376 133.080706 330.300024 78.1957647 335.374612 78.1957647 311.159553 138.270588 306.201906 138.270588 281.871553 78.1957647"></polygon>
                <path d="M306.480753,137.858329 L310.881694,137.858329 L334.765694,78.6070353 L330.580518,78.6070353 L308.740518,134.203506 L286.780282,78.6070353 L282.483106,78.6070353 L306.480753,137.858329 Z M311.4384,138.681859 L305.924047,138.681859 L305.821929,138.424918 L281.259341,77.7835059 L287.340282,77.7835059 L308.737224,131.958565 L330.020518,77.7835059 L335.984518,77.7835059 L311.4384,138.681859 Z" id="Fill-77" fill="#FFFFFF"></path>
                <path d="M391.866918,105.293506 C390.942918,91.6855059 382.065271,82.4619765 368.345271,82.4619765 C354.852565,82.4619765 345.052565,91.6855059 343.899624,105.293506 L391.866918,105.293506 Z M396.248094,109.559388 L343.784329,109.559388 C344.476094,124.201741 354.623624,134.005035 368.574212,134.005035 C376.761741,134.005035 384.025271,131.005741 388.869271,125.702212 L391.634682,128.815153 C386.102212,134.812094 377.914682,138.386212 368.345271,138.386212 C351.395388,138.386212 339.057271,125.9328 339.057271,108.289506 C339.057271,90.6478588 351.395388,78.0808 368.345271,78.0808 C385.986918,78.0808 396.593976,90.9937412 396.248094,109.559388 L396.248094,109.559388 Z" id="Fill-79" fill="#FFFFFF"></path>
                <path d="M344.351906,104.881741 L391.4232,104.881741 C390.334494,91.4960941 381.316847,82.8737412 368.344612,82.8737412 C355.253788,82.8737412 345.664612,91.6970353 344.351906,104.881741 L344.351906,104.881741 Z M392.307671,105.705271 L343.450965,105.705271 L343.490494,105.258918 C344.664847,91.3775059 354.654259,82.0502118 368.344612,82.0502118 C381.926259,82.0502118 391.322729,91.1633882 392.278024,105.265506 L392.307671,105.705271 Z M368.344612,78.4925647 C351.612141,78.4925647 339.468376,91.0233882 339.468376,108.289506 C339.468376,125.491388 351.612141,137.974447 368.344612,137.974447 C377.414965,137.974447 385.472376,134.721506 391.078965,128.808565 L388.862024,126.313271 C383.904376,131.542682 376.718259,134.4168 368.5752,134.4168 C354.201318,134.4168 344.0752,124.433976 343.371906,109.579153 L343.353788,109.147624 L395.843906,109.147624 C395.934494,99.6671529 393.053788,91.4648 387.709082,86.0196235 C382.874965,81.0949176 376.178024,78.4925647 368.344612,78.4925647 L368.344612,78.4925647 Z M368.344612,138.797976 C351.136141,138.797976 338.644847,125.967388 338.644847,108.289506 C338.644847,90.5473882 351.136141,77.6690353 368.344612,77.6690353 C376.405318,77.6690353 383.3032,80.3553882 388.297082,85.4431529 C393.874024,91.1238588 396.843671,99.6935059 396.660847,109.567624 L396.652612,109.971153 L344.218494,109.971153 C345.071671,124.119388 354.812376,133.593271 368.5752,133.593271 C376.655671,133.593271 383.756141,130.691153 388.565553,125.423859 L388.873553,125.086212 L392.190729,128.820094 L391.938729,129.095153 C386.165788,135.352329 377.785553,138.797976 368.344612,138.797976 L368.344612,138.797976 Z" id="Fill-81" fill="#FFFFFF"></path>
                <path d="M419.021482,130.083059 C419.021482,135.388235 415.332071,139.308235 410.142188,139.308235 C405.069247,139.308235 401.264541,135.388235 401.264541,130.083059 C401.264541,124.664235 405.069247,120.974824 410.142188,120.974824 C415.332071,120.974824 419.021482,124.664235 419.021482,130.083059" id="Fill-83" fill="#FFFFFF"></path>
                <g id="Group-87" transform="translate(424.941176, 76.818659)">
                    <mask id="mask-2" fill="white">
                        <use xlink:href="#path-1"></use>
                    </mask>
                    <g id="Clip-86"></g>
                    <path d="M41.0876941,40.9939765 L41.0876941,35.5652706 L27.4055765,35.5652706 C20.7366353,35.5652706 17.4573412,37.6010353 17.4573412,42.4631529 C17.4573412,47.0979765 21.0759294,50.1516235 26.9542824,50.1516235 C34.3034588,50.1516235 40.0698118,46.1937412 41.0876941,40.9939765 L41.0876941,40.9939765 Z M41.1996941,61.7963294 L41.1996941,54.6744471 C37.1298118,59.7622118 30.5728706,62.5885647 22.0921647,62.5885647 C9.09028235,62.5885647 1.17616471,54.6744471 1.17616471,43.5930353 C1.17616471,32.1739765 9.42957647,25.3897412 24.3535765,25.2777412 L41.0876941,25.2777412 L41.0876941,24.1462118 C41.0876941,17.7029176 36.7921647,13.9706824 28.4251059,13.9706824 C22.9980471,13.9706824 16.6651059,15.7808 10.3354588,19.2857412 L4.9084,7.30009412 C13.9524,2.77891765 21.7528706,0.290211765 32.3813412,0.290211765 C48.6625176,0.290211765 58.0474588,8.43162353 58.1611059,22.1120941 L58.2731059,61.7963294 L41.1996941,61.7963294 Z" id="Fill-85" fill="#FFFFFF" mask="url(#mask-2)"></path>
                </g>
                <mask id="mask-4" fill="white">
                    <use xlink:href="#path-3"></use>
                </mask>
                <g id="Clip-89"></g>
                <polygon id="Fill-88" fill="#FFFFFF" mask="url(#mask-4)" points="493.584 138.614659 510.995059 138.614659 510.995059 77.7871294 493.584 77.7871294"></polygon>
            </g>
        </g>
    </g>
</svg>