<?xml version="1.0" encoding="UTF-8" standalone="no"?>
<svg
   xmlns:dc="http://purl.org/dc/elements/1.1/"
   xmlns:cc="http://creativecommons.org/ns#"
   xmlns:rdf="http://www.w3.org/1999/02/22-rdf-syntax-ns#"
   xmlns:svg="http://www.w3.org/2000/svg"
   xmlns="http://www.w3.org/2000/svg"
   xmlns:xlink="http://www.w3.org/1999/xlink"
   version="1.2"
   width="30"
   height="50"
   viewBox="0 0 1.818001 4.7210011">
  <g
     id="g3021"
     transform="translate(-13.090026,-162.99027)">
    <path
       fill="black"
       id="path20"
       d="m 13.79997,166.10678 c 0.224,0 0.436,0.116 0.436,0.364 0,0.288 -0.224,0.484 -0.412,0.596 -0.144,0.084 -0.304,0.144 -0.468,0.144 -0.224,0 -0.436,-0.116 -0.436,-0.364 0,-0.288 0.224,-0.484 0.412,-0.596 0.144,-0.084 0.304,-0.144 0.468,-0.144 z" />
    <rect
       style="black"
       id="rect24"
       ry="0.039999999"
       height="3.3122001"
       width="0.13"
       y="163.15877"
       x="14.106071" />
    <path
       style="black"
       id="path28"
       d="m 14.23607,163.19878 c 0,0.792 0.836,1.34 0.836,2.132 0,0.284 -0.064,0.564 -0.168,0.828 -0.02,0.032 -0.048,0.048 -0.076,0.048 -0.052,0 -0.104,-0.044 -0.092,-0.108 0.104,-0.244 0.168,-0.504 0.168,-0.768 0,-0.416 -0.38,-0.832 -0.668,-1.132 h -0.064 v -1 h 0.064 z" />
  </g>
</svg>
